<?xml version="1.0" encoding="utf-8"?>
<!-- Generator: Adobe Illustrator 15.0.0, SVG Export Plug-In  -->
<!DOCTYPE svg PUBLIC "-//W3C//DTD SVG 1.1//EN" "http://www.w3.org/Graphics/SVG/1.1/DTD/svg11.dtd" [
	<!ENTITY ns_flows "http://ns.adobe.com/Flows/1.0/">
]>
<svg version="1.1"
	 xmlns="http://www.w3.org/2000/svg" xmlns:xlink="http://www.w3.org/1999/xlink" xmlns:a="http://ns.adobe.com/AdobeSVGViewerExtensions/3.0/"
	 x="0px" y="0px" width="416px" height="191px" viewBox="-1.03 -1.069 416 191"
	 overflow="visible" enable-background="new -1.03 -1.069 416 191" xml:space="preserve">
<defs>
</defs>
<path fill="#050606" d="M252.77,17.637l-0.026-11.792l-69.912,0.161l0.032,13.197c-8.489-14.065-32.437-13.12-32.437-13.12
	l-37.666,0.261l0.095,26.437c0.056,0.05,0.091,0.089,0.134,0.139l0.168,62.5c0,0-0.022,0.017-0.044,0.043l0.065,17.201l0.021,14.607
	l12.329-0.01l-0.111-56.01h6.694l43.438,55.692l76.934-0.165l-0.015-11.258l-57.056,0.138l-0.125-47.896l57.068-0.116l-0.044-11.979
	l-56.868,0.137l-0.079-38.029L252.77,17.637 M125.395,59.302l-0.087-41.382l23.394-0.222c32.213-0.432,27.356,24.412,27.356,24.412
	c-3.66,20.063-27.611,17.132-27.611,17.132L125.395,59.302z M183.261,117.445l-36.199-46.214
	c29.582,0.44,36.067-13.639,36.067-13.639L183.261,117.445z"/>
<path fill="#050606" d="M71.9,127.288l0.057,21.65l26.934-0.059l0.042,12.012l-27.028-0.041l0.065,27.08l-11.812,0.102
	l-0.043-27.184l-27.611,0.064l-0.013-11.879l27.576-0.074l-0.042-21.518c0,0-29.579,0.191-47.704-24.982
	c0,0-21.504-25.596-7.695-64.201c0,0,15.054-36.64,57.836-38.166c0,0,24.475-1.971,42.804,12.228l0.043,16.205
	c0,0-17.652-20.726-47.222-15.907c0,0-34.87,2.89-43.912,39.694c0,0-8.738,34.186,20.011,53.491c0,0,35.635,27.033,71.265-6.328
	l0.043,16.02C105.495,115.495,93.908,125.917,71.9,127.288z"/>
<polygon fill="#050606" points="260.126,115.512 260.155,126.952 329.331,126.78 329.064,5.493 259.336,5.648 259.369,17.793 
	316.935,17.655 317.037,55.69 260.178,55.828 260.178,67.63 317.214,67.496 317.337,115.383 "/>
<path fill="#050606" d="M407.814,19.398c0,0-8.3-14.768-35.604-13.811l-35.386,0.072l0.41,181.495l11.975-0.015l-0.267-116.904
	l22.197-0.061c0,0,27.631,1.722,36.753-14.329C407.893,55.845,419.645,37.671,407.814,19.398 M400.101,37.025
	c0.756,24.978-29.167,21.553-29.167,21.553l-21.647,0.038l-0.102-41.195l21.656-0.044C401.121,15.53,400.101,37.025,400.101,37.025"
	/>
</svg>
