<?xml version="1.0" encoding="utf-8"?>
<!-- Generator: Adobe Illustrator 16.0.0, SVG Export Plug-In . SVG Version: 6.00 Build 0)  -->
<!DOCTYPE svg PUBLIC "-//W3C//DTD SVG 1.1//EN" "http://www.w3.org/Graphics/SVG/1.1/DTD/svg11.dtd">
<svg version="1.1" id="Layer_1" xmlns="http://www.w3.org/2000/svg" xmlns:xlink="http://www.w3.org/1999/xlink" x="0px" y="0px"
	 width="196.75px" height="89.595px" viewBox="-1.25 -1.25 196.75 89.595" enable-background="new -1.25 -1.25 196.75 89.595"
	 xml:space="preserve">
<g>
	<path fill="#050606" d="M118.847,8.061l-0.012-5.556l-32.94,0.076l0.015,6.218c-4-6.626-15.283-6.181-15.283-6.181L52.88,2.74
		l0.044,12.457c0.026,0.023,0.042,0.042,0.063,0.065l0.079,29.448c0,0-0.01,0.008-0.021,0.021l0.031,8.104l0.01,6.882l5.809-0.005
		l-0.052-26.39h3.154l20.466,26.24l36.25-0.078l-0.007-5.304l-26.883,0.065l-0.059-22.567l26.888-0.055l-0.021-5.644l-26.794,0.064
		L91.8,8.126L118.847,8.061 M58.832,27.692L58.792,8.194l11.022-0.104c15.177-0.203,12.889,11.502,12.889,11.502
		c-1.725,9.453-13.01,8.072-13.01,8.072L58.832,27.692z M86.097,55.087L69.041,33.312c13.938,0.208,16.994-6.426,16.994-6.426
		L86.097,55.087z"/>
	<path fill="#050606" d="M33.627,59.725l0.027,10.201l12.69-0.027l0.02,5.659l-12.735-0.02l0.031,12.76l-5.565,0.048l-0.02-12.808
		l-13.01,0.03l-0.006-5.596l12.993-0.035l-0.02-10.138c0,0-13.937,0.089-22.477-11.771c0,0-10.132-12.06-3.625-30.25
		c0,0,7.093-17.263,27.25-17.982c0,0,11.532-0.929,20.168,5.762l0.021,7.635c0,0-8.317-9.766-22.25-7.495
		c0,0-16.429,1.361-20.689,18.702c0,0-4.117,16.107,9.428,25.203c0,0,16.79,12.737,33.578-2.981l0.02,7.548
		C49.456,54.168,43.997,59.079,33.627,59.725z"/>
	<polygon fill="#050606" points="122.313,54.176 122.326,59.567 154.92,59.485 154.795,2.339 121.941,2.412 121.957,8.134 
		149.08,8.069 149.128,25.99 122.337,26.055 122.337,31.616 149.211,31.553 149.269,54.116 	"/>
	<path fill="#050606" d="M191.899,8.89c0,0-3.911-6.958-16.775-6.507l-16.672,0.034l0.193,85.514l5.642-0.007l-0.126-55.081
		l10.458-0.029c0,0,13.019,0.812,17.317-6.751C191.936,26.063,197.474,17.5,191.899,8.89 M188.265,17.196
		c0.356,11.769-13.743,10.155-13.743,10.155l-10.199,0.018l-0.048-19.41l10.204-0.021C188.745,7.068,188.265,17.196,188.265,17.196"
		/>
</g>
</svg>
